<svg width="11" height="11" viewBox="0 0 11 11" fill="none" xmlns="http://www.w3.org/2000/svg">
<path fill-rule="evenodd" clip-rule="evenodd" d="M7.5 0C7.22386 0 7 0.223858 7 0.5C7 0.776142 7.22386 1 7.5 1H9.29289L5.14645 5.14645C4.95118 5.34171 4.95118 5.65829 5.14645 5.85355C5.34171 6.04882 5.65829 6.04882 5.85355 5.85355L10 1.70711V3.5C10 3.77614 10.2239 4 10.5 4C10.7761 4 11 3.77614 11 3.5V0.5C11 0.223858 10.7761 0 10.5 0H7.5ZM0.5 1C0.223858 1 0 1.22386 0 1.5V10.5C0 10.7761 0.223858 11 0.5 11H9.5C9.77614 11 10 10.7761 10 10.5V6C10 5.72386 9.77614 5.5 9.5 5.5C9.22386 5.5 9 5.72386 9 6V10H1V2H5C5.27614 2 5.5 1.77614 5.5 1.5C5.5 1.22386 5.27614 1 5 1H0.5Z" fill="#6667A2"/>
</svg>
